# xmcd
#
# Track frame offsets:
#   150
#   14953
#   29648
#   42334
#   54257
#   64334
#   76480
#   89789
#   102405
#   115327
#   129012
#   142112
#   154637
#   168016
#   180531
#   193596
#
# Disc length: 2769 seconds
#
# Revision: 0
# Processed by: cddbd v1.5.2PL0 Copyright (c) Steve Scherf et al.
# Submitted via: uFREEDB ActiveX Control 1.5
#
DISCID=df0acf10
DTITLE=Naiara Azevedo - 50 reais
DYEAR=2016
DGENRE=Country
TTITLE0=50 reais
TTITLE1=Ex do seu lado
TTITLE2=Radinho do seu Ze
TTITLE3=Inquilino
TTITLE4=O nome dela e rapariga
TTITLE5=Primeiro Gole
TTITLE6=Ele nao merece a gente
TTITLE7=Tantos planos
TTITLE8=Voce nao presta
TTITLE9=Entre ela e eu
TTITLE10=Motel ta lotado
TTITLE11=Aqui pro meu ex
TTITLE12=Ela so quer viajar
TTITLE13=Paceria de copo
TTITLE14=Azarar os Boys
TTITLE15=Cade vc aqui comigo
EXTD=
EXTT0=
EXTT1=
EXTT2=
EXTT3=
EXTT4=
EXTT5=
EXTT6=
EXTT7=
EXTT8=
EXTT9=
EXTT10=
EXTT11=
EXTT12=
EXTT13=
EXTT14=
EXTT15=
PLAYORDER=
